<?xml version="1.0" encoding="iso-8859-1"?>
<!-- Uploaded to: SVG Repo, www.svgrepo.com, Generator: SVG Repo Mixer Tools -->
<svg fill="#000000" height="800px" width="800px" version="1.1" id="Layer_1" xmlns="http://www.w3.org/2000/svg" xmlns:xlink="http://www.w3.org/1999/xlink" 
	 viewBox="0 0 512.001 512.001" xml:space="preserve">
<g>
	<g>
		<path d="M218.61,133.898h-7.552c-13.541,0-24.557-11.016-24.557-24.557c0-4.761-3.86-8.621-8.621-8.621s-8.621,3.86-8.621,8.621
			c0,9.171,2.977,17.657,8.005,24.557h-18.825h-39.364c-4.761,0-8.621,3.86-8.621,8.621c0,4.761,3.86,8.621,8.621,8.621h39.364
			c13.541,0,24.557,11.016,24.557,24.557v12.64c0,4.761,3.86,8.621,8.621,8.621s8.621-3.86,8.621-8.621v-12.64
			c0-9.171-2.977-17.657-8.005-24.557h26.377c4.761,0,8.621-3.86,8.621-8.621C227.23,137.757,223.37,133.898,218.61,133.898z"/>
	</g>
</g>
<g>
	<g>
		<path d="M380.282,133.898h-39.364h-18.825c5.028-6.9,8.005-15.385,8.005-24.557c0-4.761-3.86-8.621-8.621-8.621
			s-8.621,3.86-8.621,8.621c0,13.541-11.016,24.557-24.557,24.557h-7.552c-4.761,0-8.621,3.86-8.621,8.621
			c0,4.761,3.86,8.621,8.621,8.621h26.377c-5.028,6.9-8.005,15.386-8.005,24.557v12.64c0,4.761,3.86,8.621,8.621,8.621
			s8.621-3.86,8.621-8.621v-12.64c0-13.541,11.016-24.557,24.557-24.557h39.364c4.761,0,8.621-3.86,8.621-8.621
			C388.902,137.757,385.043,133.898,380.282,133.898z"/>
	</g>
</g>
<g>
	<g>
		<path d="M385,91.847c-3.874-25.357-25.83-44.843-52.252-44.843h-24.045C302.548,19.722,278.418,0,249.678,0
			s-52.87,19.722-59.024,47.003H166.61c-26.423,0-48.379,19.487-52.252,44.843C89,95.72,69.514,117.676,69.514,144.098
			c0,29.147,23.711,52.859,52.858,52.859h8.217c9.268,25.948,33.833,43.54,61.922,43.54c23.489,0,45.063-12.2,57.167-30.823
			c12.104,18.623,33.678,30.823,57.166,30.823c28.089,0,52.656-17.592,61.922-43.54h8.217c29.146,0,52.858-23.712,52.858-52.858
			C429.843,117.676,410.356,95.72,385,91.847z M376.985,179.716h-14.621c-3.972,0-7.43,2.714-8.373,6.572
			c-5.325,21.766-24.712,36.969-47.147,36.969c-22.331,0-43.013-15.437-48.546-36.054v-60.618c0-10.056,8.182-18.238,18.238-18.238
			h5.536c4.761,0,8.621-3.86,8.621-8.621s-3.86-8.621-8.621-8.621h-5.536c-6.664,0-12.904,1.851-18.238,5.06V73.595
			c0-4.761-3.86-8.621-8.621-8.621s-8.621,3.86-8.621,8.621v22.57c-5.333-3.209-11.573-5.06-18.238-5.06h-5.536
			c-4.761,0-8.621,3.86-8.621,8.621c0,4.761,3.86,8.621,8.621,8.621h5.536c10.056,0,18.238,8.182,18.238,18.238v60.618
			c-5.532,20.617-26.216,36.054-48.547,36.054c-22.434,0-41.821-15.202-47.147-36.969c-0.944-3.857-4.402-6.572-8.373-6.572h-14.619
			c-19.639,0-35.617-15.978-35.617-35.617c0-19.639,15.978-35.617,35.618-35.617h27.439c4.761,0,8.621-3.86,8.621-8.621
			c0-4.761-3.86-8.621-8.621-8.621h-17.757c3.866-15.487,17.89-26.996,34.556-26.996h22.765v12.116c0,4.761,3.86,8.621,8.621,8.621
			s8.621-3.86,8.621-8.621V56.111c2.247-22.181,20.7-38.87,43.062-38.87c22.47,0,40.998,16.848,43.1,39.189
			c0.038,0.4,0.112,0.789,0.201,1.17v18.758c0,4.761,3.86,8.621,8.621,8.621c4.761,0,8.621-3.86,8.621-8.621V64.244h22.527
			c16.667,0,30.692,11.509,34.556,26.996h-17.757c-4.761,0-8.621,3.86-8.621,8.621c0,4.761,3.86,8.621,8.621,8.621h27.439
			c19.639,0,35.617,15.977,35.617,35.617C412.602,163.739,396.624,179.716,376.985,179.716z"/>
	</g>
</g>
<g>
	<g>
		<path d="M249.678,233.599c-4.761,0-8.621,3.86-8.621,8.621v41.377c0,4.761,3.86,8.621,8.621,8.621s8.621-3.86,8.621-8.621V242.22
			C258.299,237.459,254.439,233.599,249.678,233.599z"/>
	</g>
</g>
<g>
	<g>
		<path d="M249.678,366.089c-4.761,0-8.621,3.86-8.621,8.621v41.377c0,4.761,3.86,8.621,8.621,8.621s8.621-3.86,8.621-8.621v-41.377
			C258.299,369.948,254.439,366.089,249.678,366.089z"/>
	</g>
</g>
<g>
	<g>
		<path d="M154.777,344.731c-2.417-4.101-7.701-5.463-11.803-3.047l-43.418,25.599c-2.629,1.549-4.242,4.374-4.242,7.425v41.377
			c0,4.761,3.86,8.621,8.621,8.621s8.621-3.86,8.621-8.621v-36.451l39.176-23.097C155.831,354.117,157.195,348.833,154.777,344.731z
			"/>
	</g>
</g>
<g>
	<g>
		<path d="M324.674,297.388H174.682c-4.761,0-8.621,3.86-8.621,8.621v43.101c0,4.761,3.86,8.621,8.621,8.621h149.992
			c4.761,0,8.621-3.86,8.621-8.621v-43.101C333.295,301.248,329.435,297.388,324.674,297.388z M316.053,340.49h-132.75v-25.861
			h132.75V340.49z"/>
	</g>
</g>
<g>
	<g>
		<path d="M284.588,432.828h-69.084c-4.761,0-8.621,3.86-8.621,8.621v61.93c0,4.761,3.86,8.621,8.621,8.621h69.084
			c4.761,0,8.621-3.86,8.621-8.621v-61.93C293.209,436.688,289.349,432.828,284.588,432.828z M275.968,494.759h-51.843V450.07
			h51.843V494.759z"/>
	</g>
</g>
<g>
	<g>
		<path d="M103.935,433.241c-21.715,0-39.38,17.665-39.38,39.38s17.667,39.38,39.38,39.38c21.714,0,39.38-17.665,39.38-39.38
			S125.648,433.241,103.935,433.241z M103.935,494.759c-12.208,0-22.139-9.931-22.139-22.139s9.932-22.139,22.139-22.139
			s22.139,9.931,22.139,22.139S116.142,494.759,103.935,494.759z"/>
	</g>
</g>
<g>
	<g>
		<path d="M443.744,463.575l-42.669-29.64c-2.956-2.054-6.879-2.054-9.837,0l-42.667,29.64c-2.32,1.612-3.702,4.256-3.702,7.08
			c0,2.824,1.383,5.469,3.702,7.08l42.667,29.64c1.479,1.028,3.198,1.54,4.918,1.54c1.72,0,3.44-0.514,4.918-1.54l42.669-29.64
			c2.32-1.612,3.702-4.256,3.702-7.08C447.447,467.831,446.064,465.187,443.744,463.575z M396.157,489.798L368.6,470.654
			l27.557-19.143l27.558,19.143L396.157,489.798z"/>
	</g>
</g>
<g>
	<g>
		<path d="M400.536,367.284l-43.418-25.599c-4.099-2.418-9.385-1.054-11.804,3.047c-2.417,4.1-1.053,9.385,3.048,11.803
			l39.175,23.097v36.451c0,4.761,3.86,8.621,8.621,8.621c4.761,0,8.621-3.86,8.621-8.621v-41.375
			C404.778,371.658,403.164,368.833,400.536,367.284z"/>
	</g>
</g>
</svg>