<svg fill="currentColor" viewBox="0 0 27.5 27.5" xmlns="http://www.w3.org/2000/svg">
  <path d="M105.5 5.7H121v-1h-15.5v1zM14.8 13h12.5c.2 0 .3 0 .3-.2v-.4c0-.1 0-.2-.2-.2-5.9-1.6-10.5-6.1-12-12L15 0h-.3c-.1 0-.2.1-.2.3v12.5c0 .1 0 .2.2.2zM14.8 27.6h.4l.2-.2c1.6-5.9 6.1-10.5 12-12l.2-.3v-.3c0-.1-.1-.3-.3-.3H14.8l-.2.3v12.5c0 .2 0 .3.2.3zM12.5 27.6h.3c.1 0 .2-.1.2-.3V14.8c0-.1 0-.3-.2-.3H.3c-.2 0-.3.2-.3.3v.4c0 .1 0 .2.2.2 5.9 1.5 10.5 6.1 12 12l.3.2zM.3 13h12.5c.1 0 .2 0 .2-.2V.3c0-.2 0-.3-.2-.3h-.4c-.1 0-.2 0-.2.2C10.6 6 6 10.7.2 12.2l-.2.3v.3c0 .1.1.2.3.2z"></path>
</svg>